<?xml version="1.0" encoding="UTF-8" standalone="no"?>
<!DOCTYPE svg PUBLIC "-//W3C//DTD SVG 1.1//EN" "http://www.w3.org/Graphics/SVG/1.1/DTD/svg11.dtd">
<svg width="100%" height="100%" viewBox="0 0 1980 1020" version="1.1" xmlns="http://www.w3.org/2000/svg" xmlns:xlink="http://www.w3.org/1999/xlink" xml:space="preserve" xmlns:serif="http://www.serif.com/" style="fill-rule:evenodd;clip-rule:evenodd;stroke-linejoin:round;stroke-miterlimit:2;">
    <g transform="matrix(1,0,0,1,-30.7025,-1216.77)">
        <g id="OutOfScope" transform="matrix(1.51381,0,0,1.27003,-1009.28,51.0592)">
            <rect x="686.998" y="917.863" width="1307.95" height="803.13" style="fill:none;"/>
            <g transform="matrix(0.035591,0,0,0.0424227,673.499,965.102)">
                <g transform="matrix(1255.75,0,0,1255.75,25383,1671.37)">
                </g>
                <text x="950.987px" y="1671.37px" style="font-family:'ArialMT', 'Arial', sans-serif;font-size:1255.75px;">Ausserhalb von unseren Suchmöglichkeiten</text>
            </g>
            <g transform="matrix(0.660583,0,0,0.787383,602.721,988.891)">
                <g transform="matrix(41.6667,0,0,41.6667,332.029,198.228)">
                </g>
                <g transform="matrix(41.6667,0,0,41.6667,343.605,198.228)">
                </g>
                <text x="158.282px" y="198.228px" style="font-family:'ArialMT', 'Arial', sans-serif;font-size:41.667px;">Leider beﬁnden Sie sich mit Ihrer Suchanfrage ausserhalb von unseren Möglichkeiten.</text>
                <text x="158.282px" y="259.495px" style="font-family:'ArialMT', 'Arial', sans-serif;font-size:41.667px;">V<tspan x="183.775px 206.948px " y="259.495px 259.495px ">er</tspan>suchen Sie es erneut oder melden Sie sich direkt bei uns, damit wir Ihnen helfen können.</text>
                <text x="158.282px" y="443.296px" style="font-family:'ArialMT', 'Arial', sans-serif;font-size:41.667px;">Haben Sie gewusst?</text>
                <g transform="matrix(41.6667,0,0,41.6667,1727.82,504.563)">
                </g>
                <text x="158.282px" y="504.563px" style="font-family:'ArialMT', 'Arial', sans-serif;font-size:41.667px;">W<tspan x="196.856px 220.029px " y="504.563px 504.563px ">en</tspan>n Sie sich registrieren, dann können Sie Ihre Suchanfragen (prompts) speichern.</text>
            </g>
        </g>
    </g>
</svg>
